<svg xmlns="http://www.w3.org/2000/svg" width="1000" height="381" viewBox="0 0 1000 381">
<g>
<path d="M 134.30,346.79 C133.11,345.27 125.65,332.40 89.49,269.50 C31.14,167.97 32.81,171.12 28.21,154.05 C25.93,145.56 25.64,142.61 25.64,127.50 C25.64,112.34 25.93,109.45 28.24,100.83 C38.87,61.30 67.96,31.73 106.50,21.29 C115.66,18.81 118.06,18.58 135.00,18.55 C155.36,18.52 161.80,19.65 177.70,26.02 C221.41,43.52 248.88,88.65 244.93,136.45 C243.10,158.61 238.19,170.96 215.88,209.50 C196.63,242.73 193.16,248.73 181.68,268.50 C175.61,278.95 166.52,294.70 161.48,303.50 C143.19,335.43 136.75,346.52 136.04,347.29 C135.64,347.73 134.86,347.50 134.30,346.79 M 142.96,288.50 L 149.22,277.50 L 147.29,274.00 C146.23,272.07 140.04,261.27 133.53,250.00 C82.47,161.52 78.16,153.77 75.99,146.41 C74.83,142.48 74.33,142.10 62.32,136.07 C55.47,132.62 49.60,130.07 49.28,130.39 C48.24,131.43 50.98,147.58 53.39,154.64 C57.19,165.78 56.10,163.75 92.81,227.50 C101.36,242.35 111.79,260.57 115.99,268.00 C120.18,275.43 124.32,282.62 125.18,284.00 C126.05,285.38 128.66,289.81 130.98,293.85 C133.30,297.89 135.54,300.82 135.95,300.35 C136.36,299.88 139.51,294.55 142.96,288.50 M 175.47,232.00 C177.80,227.88 184.27,216.62 189.87,207.00 C198.08,192.86 199.70,189.46 198.27,189.28 C197.30,189.17 188.85,188.93 179.50,188.77 C161.04,188.44 158.59,187.78 156.15,182.44 C153.92,177.54 154.90,174.11 162.92,158.71 C172.72,139.92 174.44,134.32 173.72,123.75 C172.77,109.82 165.47,99.31 152.24,92.80 C146.02,89.73 144.84,89.50 135.52,89.50 C126.39,89.50 124.92,89.77 118.95,92.60 C104.24,99.57 96.91,111.01 96.91,127.00 C96.91,139.68 95.21,136.12 130.20,197.00 C139.84,213.78 150.56,232.45 154.01,238.50 C157.47,244.55 160.99,250.30 161.82,251.27 C163.48,253.19 163.75,252.81 175.47,232.00 M 216.94,155.53 C221.08,142.61 222.37,133.38 221.64,122.00 C219.20,84.27 193.68,53.21 157.56,44.01 C131.81,37.45 103.52,42.87 83.00,58.29 C66.64,70.59 54.65,89.42 50.58,109.21 C48.81,117.86 48.52,124.33 49.95,123.83 C50.47,123.65 56.25,120.80 62.79,117.50 L 74.69,111.50 L 76.92,105.29 C82.01,91.11 93.32,78.76 107.30,72.10 C117.75,67.14 124.27,65.63 135.50,65.59 C146.53,65.55 153.11,67.06 163.50,72.03 C180.84,80.32 193.75,97.41 197.07,116.46 C199.38,129.73 196.85,144.42 189.90,158.19 C188.31,161.35 187.00,164.18 187.00,164.47 C187.00,164.76 193.05,165.00 200.45,165.00 L 213.91,165.00 L 216.94,155.53 M 412.50,219.66 C395.77,215.29 388.27,204.51 389.20,186.17 C390.07,169.14 398.36,159.91 415.48,156.93 C427.76,154.79 440.77,157.48 448.77,163.82 C450.88,165.49 453.93,169.25 455.55,172.18 C458.28,177.12 458.50,178.25 458.50,188.00 C458.50,197.48 458.23,199.05 455.70,204.21 C450.63,214.52 440.95,219.86 426.03,220.56 C420.90,220.80 415.51,220.44 412.50,219.66 M 430.00,203.72 C433.92,201.76 436.00,196.50 436.00,188.50 C436.00,176.94 432.25,172.05 423.38,172.01 C414.93,171.98 411.45,177.99 412.22,191.30 C412.66,198.80 412.90,199.52 415.86,202.17 C419.40,205.33 425.45,205.99 430.00,203.72 M 481.43,220.12 C469.82,217.11 464.57,204.73 470.07,193.35 C473.68,185.90 482.17,182.57 500.62,181.38 C510.30,180.75 511.00,180.56 510.98,178.60 C510.95,174.38 507.36,172.00 501.02,172.00 C497.97,172.00 496.26,172.64 494.41,174.50 C492.04,176.87 491.31,177.00 480.82,177.00 L 469.74,177.00 L 470.27,173.05 C471.01,167.49 474.19,163.54 480.34,160.54 C493.78,153.96 517.62,155.02 527.75,162.65 C533.55,167.02 534.35,169.80 534.95,187.50 L 535.50,203.50 L 539.25,203.81 L 543.00,204.12 L 543.00,211.09 C543.00,217.76 542.89,218.09 540.25,219.11 C531.70,222.41 520.54,220.86 515.74,215.73 C512.89,212.67 512.82,212.65 510.17,214.37 C501.91,219.77 489.56,222.24 481.43,220.12 M 507.10,202.72 C509.94,200.81 510.55,199.74 510.81,196.22 L 511.11,192.00 L 506.81,192.01 C495.02,192.02 486.80,198.94 493.22,203.44 C496.53,205.76 503.09,205.41 507.10,202.72 M 792.14,219.57 C784.13,216.95 780.00,211.10 780.00,202.35 C780.00,188.80 789.19,182.89 812.62,181.38 C822.30,180.75 823.00,180.56 822.98,178.60 C822.95,174.38 819.36,172.00 813.02,172.00 C809.97,172.00 808.26,172.64 806.41,174.50 C804.04,176.87 803.31,177.00 792.82,177.00 L 781.74,177.00 L 782.27,173.05 C783.01,167.49 786.19,163.54 792.34,160.54 C805.78,153.96 829.62,155.02 839.75,162.65 C845.61,167.07 846.40,169.79 846.98,187.50 L 847.50,203.50 L 851.25,203.81 L 855.00,204.12 L 855.00,211.09 C855.00,217.76 854.89,218.09 852.25,219.11 C847.77,220.84 839.80,221.30 835.34,220.10 C833.05,219.48 829.69,217.58 827.88,215.88 C824.67,212.89 824.49,212.85 822.04,214.46 C813.17,220.27 800.76,222.39 792.14,219.57 M 819.10,202.72 C821.94,200.81 822.55,199.74 822.81,196.22 L 823.11,192.00 L 819.31,192.02 C813.37,192.06 808.03,193.62 805.40,196.09 C802.48,198.84 802.39,200.39 805.00,203.00 C807.83,205.83 814.67,205.69 819.10,202.72 M 879.43,220.13 C874.64,218.88 870.44,216.02 868.41,212.61 C866.81,209.95 866.49,206.84 866.16,191.25 L 865.78,173.00 L 861.89,173.00 L 858.00,173.00 L 858.00,165.00 L 858.00,157.00 L 862.86,157.00 L 867.72,157.00 L 870.11,147.75 L 872.50,138.50 L 881.25,138.21 L 890.00,137.92 L 890.00,147.46 L 890.00,157.00 L 896.50,157.00 L 903.00,157.00 L 903.00,165.00 L 903.00,173.00 L 896.50,173.00 L 890.00,173.00 L 890.00,187.35 C890.00,204.06 890.44,205.00 898.33,205.00 L 903.00,205.00 L 903.00,211.89 C903.00,217.35 902.66,218.92 901.36,219.41 C898.63,220.46 882.70,220.98 879.43,220.13 M 937.00,219.68 C920.80,215.88 912.72,205.72 912.57,189.00 C912.48,177.90 914.67,171.49 920.59,165.57 C928.29,157.87 942.40,154.47 956.49,156.93 C973.35,159.86 982.00,169.56 982.00,185.54 L 982.00,192.00 L 959.00,192.00 L 936.00,192.00 L 936.00,194.55 C936.00,198.27 938.46,202.43 941.47,203.81 C947.94,206.75 958.39,204.26 959.59,199.48 C960.21,197.03 960.35,197.00 971.11,197.00 L 982.00,197.00 L 982.00,200.03 C982.00,207.64 974.91,215.73 965.81,218.50 C958.62,220.69 943.88,221.29 937.00,219.68 M 959.00,179.42 C959.00,178.56 957.68,176.53 956.08,174.92 C953.69,172.53 952.31,172.00 948.53,172.00 C941.70,172.00 936.00,175.61 936.00,179.93 C936.00,180.63 940.03,181.00 947.50,181.00 C957.30,181.00 959.00,180.77 959.00,179.42 M 303.00,178.93 L 303.00,137.86 L 332.25,138.22 C357.02,138.51 362.06,138.82 365.13,140.25 C374.63,144.64 379.97,153.06 379.99,163.64 C380.01,173.37 375.49,180.63 366.11,185.95 C365.03,186.56 366.62,190.23 373.36,202.69 C378.11,211.46 382.00,218.95 382.00,219.32 C382.00,219.69 375.58,220.00 367.73,220.00 L 353.47,220.00 L 346.24,205.50 L 339.01,191.00 L 334.00,191.00 L 329.00,191.00 L 329.00,205.50 L 329.00,220.00 L 316.00,220.00 L 303.00,220.00 L 303.00,178.93 M 351.93,169.37 C354.68,165.87 354.55,162.45 351.55,159.45 C349.27,157.17 348.38,157.00 339.05,157.00 L 329.00,157.00 L 329.00,164.50 L 329.00,172.00 L 339.43,172.00 C349.50,172.00 349.93,171.91 351.93,169.37 M 551.64,219.22 C551.37,218.79 551.23,204.73 551.33,187.97 L 551.50,157.50 L 560.97,157.50 L 570.44,157.50 L 571.30,161.86 L 572.16,166.22 L 574.83,163.66 C579.19,159.49 586.76,156.61 593.50,156.55 C601.70,156.48 604.41,157.41 609.41,162.03 L 613.71,165.98 L 615.60,163.88 C618.34,160.85 626.31,157.06 631.41,156.36 C638.03,155.45 645.56,157.63 649.55,161.61 C655.11,167.18 656.00,172.14 656.00,197.68 L 656.00,220.00 L 644.50,220.00 L 633.00,220.00 L 633.00,201.24 C633.00,177.01 631.85,173.11 624.68,173.03 C616.36,172.94 615.00,176.86 615.00,200.97 L 615.00,220.00 L 603.50,220.00 L 592.00,220.00 L 592.00,198.95 C592.00,177.94 592.00,177.91 589.55,175.45 C586.10,172.01 581.65,172.19 577.92,175.92 L 575.00,178.85 L 575.00,199.42 L 575.00,220.00 L 563.56,220.00 C557.27,220.00 551.90,219.65 551.64,219.22 M 671.00,179.03 L 671.00,138.00 L 689.25,138.01 L 707.50,138.02 L 713.38,160.76 C716.61,173.27 719.57,183.85 719.96,184.28 C720.34,184.71 722.79,176.83 725.40,166.78 C728.00,156.73 730.81,146.14 731.64,143.25 L 733.14,138.00 L 750.57,138.00 L 768.00,138.00 L 768.00,179.00 L 768.00,220.00 L 755.39,220.00 L 742.78,220.00 L 743.14,193.57 C743.34,179.03 743.22,167.67 742.87,168.32 C742.53,168.97 739.43,179.85 736.00,192.50 C732.56,205.15 729.37,216.51 728.90,217.75 C728.10,219.87 727.50,220.00 718.18,220.00 L 708.31,220.00 L 702.04,196.75 C698.59,183.96 695.18,172.15 694.47,170.50 C693.33,167.86 693.26,168.52 693.84,176.00 C694.20,180.68 694.50,192.38 694.50,202.00 L 694.50,219.50 L 682.75,219.78 L 671.00,220.06 L 671.00,179.03 M 130.50,142.27 C124.19,140.69 119.77,134.35 119.77,126.87 C119.77,121.10 122.26,116.43 127.05,113.16 C129.90,111.23 131.48,110.89 136.07,111.21 C145.56,111.88 151.17,117.68 151.31,127.01 C151.47,137.63 141.42,145.00 130.50,142.27 Z" fill="rgba(0,0,0,1)"/>
</g>
</svg>